<?xml version="1.0" standalone="no"?>
<!DOCTYPE svg PUBLIC "-//W3C//DTD SVG 20010904//EN"
 "http://www.w3.org/TR/2001/REC-SVG-20010904/DTD/svg10.dtd">
<svg version="1.0" xmlns="http://www.w3.org/2000/svg"
 width="1024.000000pt" height="1034.000000pt" viewBox="0 0 1024.000000 1034.000000"
 preserveAspectRatio="xMidYMid meet">

<g transform="translate(0.000000,1034.000000) scale(0.100000,-0.100000)"
fill="#007056" stroke="none">
<path d="M1810 6119 c-134 -16 -290 -74 -413 -152 -75 -48 -195 -164 -257
-247 -233 -314 -247 -793 -33 -1117 19 -29 39 -53 44 -53 9 0 184 170 208 202
12 15 8 28 -22 90 -90 183 -89 405 2 592 183 375 642 498 973 261 26 -19 51
-35 56 -35 9 0 222 213 222 222 0 3 -28 28 -62 54 -84 63 -244 139 -347 163
-100 24 -267 33 -371 20z"/>
<path d="M6440 5958 c-52 -15 -86 -43 -109 -91 -61 -126 23 -244 174 -246 92
-1 162 48 186 129 17 58 4 104 -44 154 -58 60 -124 78 -207 54z"/>
<path d="M8980 5625 c0 -140 -2 -255 -5 -255 -3 0 -25 15 -50 34 -96 74 -232
100 -370 72 -194 -39 -329 -161 -392 -351 -22 -67 -26 -98 -26 -190 0 -129 18
-209 70 -308 106 -202 373 -304 610 -232 29 9 82 38 118 65 l65 49 0 -59 0
-60 145 0 145 0 0 745 0 745 -155 0 -155 0 0 -255z m-138 -428 c85 -50 132
-124 144 -228 25 -215 -154 -382 -350 -325 -114 33 -189 145 -190 281 0 147
71 256 194 296 49 16 155 4 202 -24z"/>
<path d="M2640 5576 l-115 -114 24 -52 c147 -324 6 -717 -314 -875 -104 -52
-183 -69 -305 -68 -125 1 -233 31 -319 88 -30 20 -57 34 -61 33 -22 -9 -232
-221 -224 -226 41 -30 157 -103 190 -120 61 -31 189 -69 277 -83 103 -16 289
-6 392 20 97 26 243 94 329 155 207 148 357 386 396 629 18 110 8 328 -19 437
-21 82 -113 290 -129 290 -4 0 -59 -52 -122 -114z"/>
<path d="M1870 5476 c-76 -17 -129 -46 -177 -99 -53 -58 -80 -111 -91 -181
-30 -192 97 -364 292 -396 145 -23 295 60 360 200 31 67 36 188 10 264 -20 59
-102 150 -163 181 -38 19 -148 48 -170 44 -3 0 -31 -6 -61 -13z"/>
<path d="M3658 5480 c-83 -15 -147 -40 -200 -81 -29 -21 -56 -39 -60 -39 -5 0
-8 25 -8 55 l0 55 -143 0 -144 0 -6 -122 c-3 -68 -5 -310 -4 -538 l2 -415 152
-3 151 -3 5 313 c4 344 7 361 65 429 112 131 325 113 388 -34 17 -37 19 -78
22 -374 l3 -333 155 0 156 0 -4 373 c-4 324 -7 379 -22 427 -37 114 -78 170
-163 229 -76 52 -238 80 -345 61z"/>
<path d="M4922 5480 c-62 -13 -142 -52 -185 -90 l-37 -32 0 56 0 56 -145 0
-145 0 0 -540 0 -540 149 0 149 0 4 333 c3 290 6 337 21 372 36 80 104 125
192 125 76 0 123 -31 160 -105 l30 -60 4 -332 3 -333 148 0 149 0 3 338 c3
325 4 339 25 378 29 54 84 101 128 110 99 18 183 -17 221 -93 17 -35 19 -68
22 -385 l3 -348 154 0 155 0 0 343 c0 353 -6 429 -41 522 -93 249 -479 313
-700 117 l-46 -41 -55 53 c-37 36 -74 61 -113 75 -66 25 -188 35 -253 21z"/>
<path d="M7409 5476 c-76 -16 -134 -43 -183 -86 -48 -42 -56 -39 -56 25 l0 55
-145 0 -145 0 0 -540 0 -540 155 0 155 0 0 303 c0 338 6 379 62 443 50 56 101
78 189 78 66 1 81 -2 117 -26 51 -34 87 -95 101 -172 6 -34 11 -184 11 -343
l0 -283 151 0 151 0 -4 373 c-3 357 -4 375 -26 437 -48 135 -128 216 -260 261
-75 26 -190 32 -273 15z"/>
<path d="M6350 4930 l0 -540 155 0 155 0 0 540 0 540 -155 0 -155 0 0 -540z"/>
</g>
</svg>
