<svg version="1.1" xmlns="http://www.w3.org/2000/svg" xmlns:xlink="http://www.w3.org/1999/xlink" x="0px" y="0px"
	 width="720" height="720" viewBox="150 155 720 720" xml:space="preserve">
<path fill="#F97316" opacity="1.000000" stroke="none"
	d="
M286.606781,674.629761
	C274.729065,686.570923 263.096405,698.266113 251.480408,709.977783
	C247.261673,714.231323 246.807068,714.201050 243.190414,709.425720
	C212.628693,669.073242 193.807648,623.657715 184.688370,574.033752
	C181.373459,555.995056 179.117218,537.789429 179.205856,519.490356
	C179.542313,450.030426 198.050842,386.052155 238.214035,328.871490
	C266.820129,288.144745 302.751404,255.387695 345.930664,230.647522
	C380.694427,210.729156 417.992035,197.999939 457.536194,191.693832
	C486.994232,186.996170 516.536194,186.201218 546.132629,189.851532
	C609.900024,197.716370 666.831238,221.719727 716.474915,262.661591
	C726.049622,270.558075 725.954224,270.664154 717.045532,279.504242
	C695.759888,300.626038 674.399414,321.673553 653.280212,342.960510
	C650.057007,346.209259 648.086365,346.156403 644.657288,343.427460
	C612.377197,317.738312 575.799011,301.592712 534.847656,296.587860
	C488.543396,290.928802 444.603607,299.293274 403.657349,322.006653
	C351.803192,350.770782 315.715576,393.084076 297.967163,449.671234
	C278.034180,513.223511 285.951721,574.013672 320.711945,630.985779
	C323.595367,635.711731 323.135742,638.182495 319.328186,641.840881
	C308.279907,652.456482 297.651581,663.509155 286.606781,674.629761
z"/>
<path fill="#F97316" opacity="1.000000" stroke="none"
	d="
M590.392883,833.516785
	C558.084900,842.225769 525.564270,846.030518 492.615570,844.102356
	C423.520111,840.058960 361.425873,816.832031 306.633789,774.395691
	C301.785126,770.640442 301.820312,770.505737 306.203339,766.116760
	C329.160614,743.128357 352.190277,720.211731 375.046234,697.123108
	C377.899963,694.240295 379.901276,694.258850 383.060455,696.486938
	C405.059265,712.002014 429.113068,723.131287 455.196014,729.882141
	C499.150909,741.258728 542.392517,738.709595 584.617249,722.374084
	C630.248535,704.720703 666.806885,675.431702 693.541016,634.315613
	C713.618164,603.437805 724.998413,569.555054 727.845825,532.760254
	C731.161438,489.916321 722.537903,449.672272 702.081848,411.968292
	C700.042053,408.208618 700.383423,406.025360 703.403015,403.035583
	C726.725281,379.943481 749.863953,356.666016 773.065613,333.452087
	C777.886108,328.629089 777.897949,328.640656 781.717468,334.316437
	C808.737671,374.468262 825.842529,418.520996 833.008606,466.337555
	C836.689270,490.897095 838.360901,515.620483 836.177551,540.473999
	C829.847412,612.531494 803.904480,676.370911 755.976135,730.848633
	C711.761963,781.104797 657.202454,815.009216 592.750916,833.020996
	C592.110840,833.199951 591.445618,833.288635 590.392883,833.020996
z"/>
<path fill="#F97316" opacity="1.000000" stroke="none"
	d="
M394.416016,525.403198
	C391.991486,495.795990 399.689392,469.472473 417.468170,446.371246
	C437.714325,420.063934 464.731140,404.667725 497.716675,402.024750
	C539.239380,398.697754 573.401550,414.131195 599.117798,447.065033
	C631.548401,488.597565 629.896240,547.513550 595.503906,589.376282
	C549.281921,645.637878 460.834412,643.477417 417.337769,585.115173
	C404.169617,567.446655 396.187347,547.892578 394.416016,525.403198
z"/>
</svg>
